<mxfile host="app.diagrams.net" agent="Mozilla/5.0 (Windows NT 10.0; Win64; x64) AppleWebKit/537.36 (KHTML, like Gecko) Chrome/129.0.0.0 Safari/537.36" version="24.7.17">
  <diagram name="Page-1" id="Fy2X4vznhnpyYH_QJ2Um">
    <mxGraphModel dx="1615" dy="803" grid="0" gridSize="10" guides="1" tooltips="1" connect="1" arrows="1" fold="1" page="1" pageScale="1" pageWidth="827" pageHeight="1169" math="0" shadow="0">
      <root>
        <mxCell id="0" />
        <mxCell id="1" parent="0" />
        <mxCell id="L_034siulpZ2XqolXvQZ-24" style="edgeStyle=orthogonalEdgeStyle;rounded=0;orthogonalLoop=1;jettySize=auto;html=1;exitX=0.5;exitY=1;exitDx=0;exitDy=0;entryX=0.5;entryY=0;entryDx=0;entryDy=0;" edge="1" parent="1" source="L_034siulpZ2XqolXvQZ-1" target="L_034siulpZ2XqolXvQZ-2">
          <mxGeometry relative="1" as="geometry" />
        </mxCell>
        <mxCell id="L_034siulpZ2XqolXvQZ-1" value="&lt;span style=&quot;font-size: 16px;&quot;&gt;START&lt;/span&gt;" style="ellipse;whiteSpace=wrap;html=1;" vertex="1" parent="1">
          <mxGeometry x="53" y="33" width="106" height="61" as="geometry" />
        </mxCell>
        <mxCell id="L_034siulpZ2XqolXvQZ-25" style="edgeStyle=orthogonalEdgeStyle;rounded=0;orthogonalLoop=1;jettySize=auto;html=1;exitX=0.5;exitY=1;exitDx=0;exitDy=0;entryX=0.5;entryY=0;entryDx=0;entryDy=0;" edge="1" parent="1" source="L_034siulpZ2XqolXvQZ-2" target="L_034siulpZ2XqolXvQZ-3">
          <mxGeometry relative="1" as="geometry" />
        </mxCell>
        <mxCell id="L_034siulpZ2XqolXvQZ-38" style="edgeStyle=orthogonalEdgeStyle;rounded=0;orthogonalLoop=1;jettySize=auto;html=1;exitX=1;exitY=0.5;exitDx=0;exitDy=0;entryX=0.5;entryY=1;entryDx=0;entryDy=0;" edge="1" parent="1" source="L_034siulpZ2XqolXvQZ-2" target="L_034siulpZ2XqolXvQZ-9">
          <mxGeometry relative="1" as="geometry" />
        </mxCell>
        <mxCell id="L_034siulpZ2XqolXvQZ-2" value="LOGIN/SIGNUP USING APP" style="rounded=0;whiteSpace=wrap;html=1;" vertex="1" parent="1">
          <mxGeometry x="46" y="128" width="120" height="60" as="geometry" />
        </mxCell>
        <mxCell id="L_034siulpZ2XqolXvQZ-39" style="edgeStyle=orthogonalEdgeStyle;rounded=0;orthogonalLoop=1;jettySize=auto;html=1;exitX=1;exitY=0.5;exitDx=0;exitDy=0;entryX=0;entryY=0.5;entryDx=0;entryDy=0;" edge="1" parent="1" source="L_034siulpZ2XqolXvQZ-3" target="L_034siulpZ2XqolXvQZ-10">
          <mxGeometry relative="1" as="geometry" />
        </mxCell>
        <mxCell id="L_034siulpZ2XqolXvQZ-3" value="ENSURE WIFI CONNECTIVITY" style="rounded=0;whiteSpace=wrap;html=1;" vertex="1" parent="1">
          <mxGeometry x="46" y="223" width="120" height="60" as="geometry" />
        </mxCell>
        <mxCell id="L_034siulpZ2XqolXvQZ-51" style="edgeStyle=orthogonalEdgeStyle;rounded=0;orthogonalLoop=1;jettySize=auto;html=1;entryX=0.5;entryY=1;entryDx=0;entryDy=0;" edge="1" parent="1" source="L_034siulpZ2XqolXvQZ-4" target="L_034siulpZ2XqolXvQZ-13">
          <mxGeometry relative="1" as="geometry">
            <Array as="points">
              <mxPoint x="479" y="349" />
            </Array>
          </mxGeometry>
        </mxCell>
        <mxCell id="L_034siulpZ2XqolXvQZ-4" value="CONTROL THE DIRECTIONS FOR THE ROBOT" style="rounded=0;whiteSpace=wrap;html=1;" vertex="1" parent="1">
          <mxGeometry x="46" y="319" width="120" height="60" as="geometry" />
        </mxCell>
        <mxCell id="L_034siulpZ2XqolXvQZ-40" style="edgeStyle=orthogonalEdgeStyle;rounded=0;orthogonalLoop=1;jettySize=auto;html=1;exitX=1;exitY=0.5;exitDx=0;exitDy=0;entryX=0;entryY=0.5;entryDx=0;entryDy=0;" edge="1" parent="1" source="L_034siulpZ2XqolXvQZ-5" target="L_034siulpZ2XqolXvQZ-11">
          <mxGeometry relative="1" as="geometry" />
        </mxCell>
        <mxCell id="L_034siulpZ2XqolXvQZ-5" value="ACCESS THE CAPTURED IMAGES" style="rounded=0;whiteSpace=wrap;html=1;" vertex="1" parent="1">
          <mxGeometry x="46" y="414" width="120" height="60" as="geometry" />
        </mxCell>
        <mxCell id="L_034siulpZ2XqolXvQZ-41" style="edgeStyle=orthogonalEdgeStyle;rounded=0;orthogonalLoop=1;jettySize=auto;html=1;exitX=1;exitY=0.5;exitDx=0;exitDy=0;entryX=0;entryY=0.5;entryDx=0;entryDy=0;" edge="1" parent="1" source="L_034siulpZ2XqolXvQZ-6" target="L_034siulpZ2XqolXvQZ-12">
          <mxGeometry relative="1" as="geometry" />
        </mxCell>
        <mxCell id="L_034siulpZ2XqolXvQZ-6" value="LIVE LOCATION" style="rounded=0;whiteSpace=wrap;html=1;" vertex="1" parent="1">
          <mxGeometry x="46" y="511" width="120" height="60" as="geometry" />
        </mxCell>
        <mxCell id="L_034siulpZ2XqolXvQZ-53" style="edgeStyle=orthogonalEdgeStyle;rounded=0;orthogonalLoop=1;jettySize=auto;html=1;" edge="1" parent="1" source="L_034siulpZ2XqolXvQZ-7" target="L_034siulpZ2XqolXvQZ-8">
          <mxGeometry relative="1" as="geometry" />
        </mxCell>
        <mxCell id="L_034siulpZ2XqolXvQZ-7" value="ACCESS ALL READINGS AND TRAIN MODEL WITH THE DATASETS" style="rounded=0;whiteSpace=wrap;html=1;" vertex="1" parent="1">
          <mxGeometry x="46" y="608" width="120" height="60" as="geometry" />
        </mxCell>
        <mxCell id="L_034siulpZ2XqolXvQZ-8" value="&lt;span style=&quot;font-size: 16px;&quot;&gt;STOP&lt;/span&gt;" style="ellipse;whiteSpace=wrap;html=1;" vertex="1" parent="1">
          <mxGeometry x="304" y="762" width="106" height="61" as="geometry" />
        </mxCell>
        <mxCell id="L_034siulpZ2XqolXvQZ-9" value="AUTHENTICATE USER VIA FIREBASE AUTHENTICATION" style="rounded=0;whiteSpace=wrap;html=1;" vertex="1" parent="1">
          <mxGeometry x="264" y="44" width="120" height="60" as="geometry" />
        </mxCell>
        <mxCell id="L_034siulpZ2XqolXvQZ-10" value="COMPULSORY REQUIREMENT TO FETCH DATA" style="rounded=0;whiteSpace=wrap;html=1;" vertex="1" parent="1">
          <mxGeometry x="244" y="223" width="120" height="60" as="geometry" />
        </mxCell>
        <mxCell id="L_034siulpZ2XqolXvQZ-11" value="PROVIDE VISUAL INSIGHTS" style="rounded=0;whiteSpace=wrap;html=1;" vertex="1" parent="1">
          <mxGeometry x="239" y="414" width="120" height="60" as="geometry" />
        </mxCell>
        <mxCell id="L_034siulpZ2XqolXvQZ-12" value="HELPS DETECT ACCURATE LOCATION OF LEAKAGE" style="rounded=0;whiteSpace=wrap;html=1;" vertex="1" parent="1">
          <mxGeometry x="244" y="511" width="120" height="60" as="geometry" />
        </mxCell>
        <mxCell id="L_034siulpZ2XqolXvQZ-52" style="edgeStyle=orthogonalEdgeStyle;rounded=0;orthogonalLoop=1;jettySize=auto;html=1;entryX=0;entryY=0.5;entryDx=0;entryDy=0;" edge="1" parent="1" source="L_034siulpZ2XqolXvQZ-13" target="L_034siulpZ2XqolXvQZ-14">
          <mxGeometry relative="1" as="geometry" />
        </mxCell>
        <mxCell id="L_034siulpZ2XqolXvQZ-13" value="FIREBASE CONNECTIVITY" style="rounded=0;whiteSpace=wrap;html=1;" vertex="1" parent="1">
          <mxGeometry x="419" y="149" width="120" height="60" as="geometry" />
        </mxCell>
        <mxCell id="L_034siulpZ2XqolXvQZ-42" value="" style="edgeStyle=orthogonalEdgeStyle;rounded=0;orthogonalLoop=1;jettySize=auto;html=1;" edge="1" parent="1" source="L_034siulpZ2XqolXvQZ-14" target="L_034siulpZ2XqolXvQZ-15">
          <mxGeometry relative="1" as="geometry" />
        </mxCell>
        <mxCell id="L_034siulpZ2XqolXvQZ-14" value="RASPBERRY PI 4B" style="rounded=0;whiteSpace=wrap;html=1;" vertex="1" parent="1">
          <mxGeometry x="588" y="44" width="120" height="60" as="geometry" />
        </mxCell>
        <mxCell id="L_034siulpZ2XqolXvQZ-43" value="" style="edgeStyle=orthogonalEdgeStyle;rounded=0;orthogonalLoop=1;jettySize=auto;html=1;" edge="1" parent="1" source="L_034siulpZ2XqolXvQZ-15" target="L_034siulpZ2XqolXvQZ-16">
          <mxGeometry relative="1" as="geometry" />
        </mxCell>
        <mxCell id="L_034siulpZ2XqolXvQZ-15" value="MOTORS HELP MOVE THE ROBOT USING ULTRASONIC SENSORS" style="rounded=0;whiteSpace=wrap;html=1;" vertex="1" parent="1">
          <mxGeometry x="588" y="143" width="120" height="60" as="geometry" />
        </mxCell>
        <mxCell id="L_034siulpZ2XqolXvQZ-44" value="" style="edgeStyle=orthogonalEdgeStyle;rounded=0;orthogonalLoop=1;jettySize=auto;html=1;" edge="1" parent="1" source="L_034siulpZ2XqolXvQZ-16" target="L_034siulpZ2XqolXvQZ-17">
          <mxGeometry relative="1" as="geometry" />
        </mxCell>
        <mxCell id="L_034siulpZ2XqolXvQZ-16" value="MAGNETS TO ENSURE STABILITY ON PIPES" style="rounded=0;whiteSpace=wrap;html=1;" vertex="1" parent="1">
          <mxGeometry x="588" y="240" width="120" height="60" as="geometry" />
        </mxCell>
        <mxCell id="L_034siulpZ2XqolXvQZ-45" value="" style="edgeStyle=orthogonalEdgeStyle;rounded=0;orthogonalLoop=1;jettySize=auto;html=1;" edge="1" parent="1" source="L_034siulpZ2XqolXvQZ-17" target="L_034siulpZ2XqolXvQZ-18">
          <mxGeometry relative="1" as="geometry" />
        </mxCell>
        <mxCell id="L_034siulpZ2XqolXvQZ-49" value="" style="edgeStyle=orthogonalEdgeStyle;rounded=0;orthogonalLoop=1;jettySize=auto;html=1;" edge="1" parent="1" source="L_034siulpZ2XqolXvQZ-17" target="L_034siulpZ2XqolXvQZ-23">
          <mxGeometry relative="1" as="geometry" />
        </mxCell>
        <mxCell id="L_034siulpZ2XqolXvQZ-17" value="OBSTACLE DETECTION" style="rounded=0;whiteSpace=wrap;html=1;" vertex="1" parent="1">
          <mxGeometry x="588" y="342" width="120" height="60" as="geometry" />
        </mxCell>
        <mxCell id="L_034siulpZ2XqolXvQZ-46" value="" style="edgeStyle=orthogonalEdgeStyle;rounded=0;orthogonalLoop=1;jettySize=auto;html=1;" edge="1" parent="1" source="L_034siulpZ2XqolXvQZ-18" target="L_034siulpZ2XqolXvQZ-19">
          <mxGeometry relative="1" as="geometry" />
        </mxCell>
        <mxCell id="L_034siulpZ2XqolXvQZ-18" value="MQ 5 SENSOR FOR LPG GAS LEAKAGE DETECTION" style="rounded=0;whiteSpace=wrap;html=1;" vertex="1" parent="1">
          <mxGeometry x="588" y="447" width="120" height="60" as="geometry" />
        </mxCell>
        <mxCell id="L_034siulpZ2XqolXvQZ-47" value="" style="edgeStyle=orthogonalEdgeStyle;rounded=0;orthogonalLoop=1;jettySize=auto;html=1;" edge="1" parent="1" source="L_034siulpZ2XqolXvQZ-19" target="L_034siulpZ2XqolXvQZ-20">
          <mxGeometry relative="1" as="geometry" />
        </mxCell>
        <mxCell id="L_034siulpZ2XqolXvQZ-50" value="" style="edgeStyle=orthogonalEdgeStyle;rounded=0;orthogonalLoop=1;jettySize=auto;html=1;" edge="1" parent="1" source="L_034siulpZ2XqolXvQZ-19" target="L_034siulpZ2XqolXvQZ-22">
          <mxGeometry relative="1" as="geometry" />
        </mxCell>
        <mxCell id="L_034siulpZ2XqolXvQZ-19" value="CAMERA MODULE FOR CAPTURING REAL TIME IMAGES" style="rounded=0;whiteSpace=wrap;html=1;" vertex="1" parent="1">
          <mxGeometry x="588" y="551" width="120" height="60" as="geometry" />
        </mxCell>
        <mxCell id="L_034siulpZ2XqolXvQZ-48" value="" style="edgeStyle=orthogonalEdgeStyle;rounded=0;orthogonalLoop=1;jettySize=auto;html=1;" edge="1" parent="1" source="L_034siulpZ2XqolXvQZ-20" target="L_034siulpZ2XqolXvQZ-21">
          <mxGeometry relative="1" as="geometry" />
        </mxCell>
        <mxCell id="L_034siulpZ2XqolXvQZ-20" value="TEMPERATURE AND HUMIDITY SENSOR" style="rounded=0;whiteSpace=wrap;html=1;" vertex="1" parent="1">
          <mxGeometry x="588" y="657" width="120" height="60" as="geometry" />
        </mxCell>
        <mxCell id="L_034siulpZ2XqolXvQZ-21" value="ML ALGORITHMS FOR DETECTION AND IMPROVEMENT" style="rounded=0;whiteSpace=wrap;html=1;" vertex="1" parent="1">
          <mxGeometry x="588" y="763" width="120" height="60" as="geometry" />
        </mxCell>
        <mxCell id="L_034siulpZ2XqolXvQZ-22" value="FLASHLIGHT FOR HIGH QUALITY OUTPUT" style="rounded=0;whiteSpace=wrap;html=1;" vertex="1" parent="1">
          <mxGeometry x="426" y="551" width="120" height="60" as="geometry" />
        </mxCell>
        <mxCell id="L_034siulpZ2XqolXvQZ-23" value="CONVEYOR BELT TO OVERCOME OBSTACLES" style="rounded=0;whiteSpace=wrap;html=1;" vertex="1" parent="1">
          <mxGeometry x="413.5" y="379" width="120" height="60" as="geometry" />
        </mxCell>
        <mxCell id="L_034siulpZ2XqolXvQZ-26" style="edgeStyle=orthogonalEdgeStyle;rounded=0;orthogonalLoop=1;jettySize=auto;html=1;exitX=0.5;exitY=1;exitDx=0;exitDy=0;entryX=0.5;entryY=0;entryDx=0;entryDy=0;" edge="1" parent="1">
          <mxGeometry relative="1" as="geometry">
            <mxPoint x="105.52" y="283" as="sourcePoint" />
            <mxPoint x="105.52" y="318" as="targetPoint" />
          </mxGeometry>
        </mxCell>
        <mxCell id="L_034siulpZ2XqolXvQZ-31" style="edgeStyle=orthogonalEdgeStyle;rounded=0;orthogonalLoop=1;jettySize=auto;html=1;exitX=0.5;exitY=1;exitDx=0;exitDy=0;entryX=0.5;entryY=0;entryDx=0;entryDy=0;" edge="1" parent="1">
          <mxGeometry relative="1" as="geometry">
            <mxPoint x="105.52" y="379" as="sourcePoint" />
            <mxPoint x="105.52" y="414" as="targetPoint" />
          </mxGeometry>
        </mxCell>
        <mxCell id="L_034siulpZ2XqolXvQZ-33" style="edgeStyle=orthogonalEdgeStyle;rounded=0;orthogonalLoop=1;jettySize=auto;html=1;exitX=0.5;exitY=1;exitDx=0;exitDy=0;entryX=0.5;entryY=0;entryDx=0;entryDy=0;" edge="1" parent="1">
          <mxGeometry relative="1" as="geometry">
            <mxPoint x="105.52" y="571" as="sourcePoint" />
            <mxPoint x="105.52" y="606" as="targetPoint" />
          </mxGeometry>
        </mxCell>
        <mxCell id="L_034siulpZ2XqolXvQZ-35" style="edgeStyle=orthogonalEdgeStyle;rounded=0;orthogonalLoop=1;jettySize=auto;html=1;exitX=0.5;exitY=1;exitDx=0;exitDy=0;entryX=0.5;entryY=0;entryDx=0;entryDy=0;" edge="1" parent="1">
          <mxGeometry relative="1" as="geometry">
            <mxPoint x="105.52" y="476" as="sourcePoint" />
            <mxPoint x="105.52" y="511" as="targetPoint" />
          </mxGeometry>
        </mxCell>
      </root>
    </mxGraphModel>
  </diagram>
</mxfile>
